#tb 0: 1/25
#media_type 0: video
#codec_id 0: rawvideo
#dimensions 0: 1920x1080
#sar 0: 0/1
0,          0,          0,        1,  8294400, 0x1b2f1079
0,          1,          1,        1,  8294400, 0x6646f91c
0,          2,          2,        1,  8294400, 0x17dc9f51
0,          3,          3,        1,  8294400, 0x4aad9b3a
0,          4,          4,        1,  8294400, 0x8a422d34
0,          5,          5,        1,  8294400, 0x8fd76d87
0,          6,          6,        1,  8294400, 0xc7c75f18
0,          7,          7,        1,  8294400, 0x4a1c2643
0,          8,          8,        1,  8294400, 0xfe225709
0,          9,          9,        1,  8294400, 0x032ad2e5
